<?xml version="1.0" standalone="no"?><!DOCTYPE svg PUBLIC "-//W3C//DTD SVG 1.1//EN" "http://www.w3.org/Graphics/SVG/1.1/DTD/svg11.dtd"><svg t="1737810382016" class="icon" viewBox="0 0 1065 1024" version="1.1" xmlns="http://www.w3.org/2000/svg" p-id="1804" xmlns:xlink="http://www.w3.org/1999/xlink" width="208.0078125" height="200"><path d="M1064.83712 625.78688V183.0912L1064.96 182.59968a38.54336 38.54336 0 0 0-31.5392-37.56032l-1.51552-1.92512L570.40896 3.80928l-1.31072 0.12288a74.05568 74.05568 0 0 0-62.21824 6.88128l-0.69632 0.12288L120.832 212.66432a56.56576 56.56576 0 0 0-9.95328 5.24288l-1.4336 0.73728-0.24576 0.32768c-15.52384 10.69056-25.8048 28.18048-26.74688 48.29184L81.92 268.0832V738.9184l0.94208 1.2288a73.07264 73.07264 0 0 0 49.88928 61.93152l0.6144 0.8192 528.05632 175.9232 1.92512-0.32768c7.33184 2.62144 15.03232 4.5056 23.22432 4.5056 18.96448 0 35.88096-7.86432 48.20992-20.19328l0.6144-0.12288 296.96-259.39968 0.73728-1.31072c16.09728-15.68768 26.86976-36.49536 30.3104-59.92448l1.4336-2.74432v-11.18208c0-0.32768 0.12288-0.69632 0.12288-1.18784 0-0.45056-0.12288-0.8192-0.12288-1.18784zM539.0336 36.37248L993.85344 168.3456 862.208 253.1328 391.70048 112.2304 539.0336 36.37248z m132.38272 892.928l-545.83296-181.0432V257.2288l545.9968 158.1056v513.92512h-0.16384z m12.0832-561.152L170.10688 226.63168 347.25888 135.168 822.4768 278.65088 683.45856 368.2304z m337.05984 278.20032l-305.52064 277.25824V404.43904l305.52064-196.28032V646.3488zM286.59712 475.42272l195.54304 58.5728a21.504 21.504 0 1 0 11.14112-41.61536l-195.54304-58.5728a21.42208 21.42208 0 0 0-26.33728 15.19616 21.504 21.504 0 0 0 15.1552 26.4192z" fill="#00B8AC" p-id="1805"></path></svg>